<svg xmlns="http://www.w3.org/2000/svg" version="1.1" xmlns:xlink="http://www.w3.org/1999/xlink" xmlns:svgjs="http://svgjs.dev/svgjs" width="1440" height="560" preserveAspectRatio="none" viewBox="0 0 1440 560"><g mask="url(&quot;#SvgjsMask1019&quot;)" fill="none"><path d="M553.0114699290177 90.61860336891141L603.7648843612169 182.18018674768058 695.326467739986 131.42677231548143 644.5730533077868 39.86518893671227z" fill="rgba(142, 107, 28, 0.4)" class="triangle-float1"></path><path d="M693.1801110850622 460.24257682142604L814.6079524332474 573.4758707557392 806.4134050193753 338.81473547324083z" fill="rgba(142, 107, 28, 0.4)" class="triangle-float1"></path><path d="M42.224,411.699C62.846,412.486,84.15,403.478,93.484,385.072C102.208,367.869,92.558,348.684,82.539,332.201C73.049,316.589,60.494,300.864,42.224,300.74C23.802,300.615,9.911,315.552,0.95,331.648C-7.719,347.221,-10.849,365.562,-2.681,381.403C6.188,398.604,22.885,410.961,42.224,411.699" fill="rgba(142, 107, 28, 0.4)" class="triangle-float1"></path><path d="M1014.6032935598755 483.34748547536094L942.3491983474078 367.7167620422292 826.718474914276 439.9708572546969 898.9725701267438 555.6015806878287z" fill="rgba(142, 107, 28, 0.4)" class="triangle-float1"></path><path d="M191.50844709306034 415.9423966028662L86.28981461428835 317.8244344736372-11.828147514940667 423.0430669524092 93.39048496383134 521.1610290816382z" fill="rgba(142, 107, 28, 0.4)" class="triangle-float3"></path><path d="M478.1555594717677 237.01940698336927L566.3570185070876 265.6777982604245 595.0154097841428 177.47633922510465 506.8139507488229 148.8179479480494z" fill="rgba(142, 107, 28, 0.4)" class="triangle-float3"></path><path d="M1377.824,497.838C1405.434,497.284,1427.058,476.717,1440.497,452.591C1453.52,429.212,1458.148,400.932,1444.685,377.804C1431.293,354.798,1404.433,344.176,1377.824,344.924C1352.551,345.635,1330.328,359.799,1317.173,381.39C1303.4,403.996,1298.413,431.718,1310.641,455.195C1323.773,480.409,1349.401,498.408,1377.824,497.838" fill="rgba(142, 107, 28, 0.4)" class="triangle-float3"></path><path d="M675.4031872669478 245.8105668705712L552.6569649383283 292.79425917960083 640.6688430686988 366.6449936580144z" fill="rgba(142, 107, 28, 0.4)" class="triangle-float2"></path><path d="M159.803,473.892C190.404,474.232,221.748,464.344,237.678,438.214C254.189,411.131,250.898,377.275,235.664,349.454C219.74,320.371,192.939,297.157,159.803,295.99C124.765,294.756,90.58,312.826,74.083,343.762C58.386,373.199,66.514,408.657,84.866,436.517C101.323,461.501,129.888,473.56,159.803,473.892" fill="rgba(142, 107, 28, 0.4)" class="triangle-float1"></path></g><defs><mask id="SvgjsMask1019"><rect width="1440" height="560" fill="#ffffff"></rect></mask><style>
                @keyframes float1 {
                    0%{transform: translate(0, 0)}
                    50%{transform: translate(-10px, 0)}
                    100%{transform: translate(0, 0)}
                }

                .triangle-float1 {
                    animation: float1 5s infinite;
                }

                @keyframes float2 {
                    0%{transform: translate(0, 0)}
                    50%{transform: translate(-5px, -5px)}
                    100%{transform: translate(0, 0)}
                }

                .triangle-float2 {
                    animation: float2 4s infinite;
                }

                @keyframes float3 {
                    0%{transform: translate(0, 0)}
                    50%{transform: translate(0, -10px)}
                    100%{transform: translate(0, 0)}
                }

                .triangle-float3 {
                    animation: float3 6s infinite;
                }
            </style></defs></svg>