<svg xmlns="http://www.w3.org/2000/svg" version="1.1" xmlns:xlink="http://www.w3.org/1999/xlink" xmlns:svgjs="http://svgjs.dev/svgjs" width="1440" height="560" preserveAspectRatio="none" viewBox="0 0 1440 560"><g mask="url(&quot;#SvgjsMask1423&quot;)" fill="none"><path d="M1231.2646060749569 484.5606054352781L1311.8120322765267 369.5269592572987 1196.7783860985471 288.979533055729 1116.2309598969775 404.0131792337084z" fill="rgba(159, 161, 255, 0.35)" class="triangle-float3"></path><path d="M664.02,426.486C691.263,424.56,714.667,409.918,729.45,386.954C745.815,361.531,756.371,330.677,743.219,303.453C728.5,272.986,697.855,251.786,664.02,251.517C629.765,251.245,599.649,272.458,582.612,302.177C565.671,331.728,561.672,368.998,580.334,397.494C597.669,423.965,632.457,428.717,664.02,426.486" fill="rgba(159, 161, 255, 0.35)" class="triangle-float3"></path><path d="M345.317,528.301C361.16,528.663,374.406,517.839,382.601,504.275C391.135,490.149,396.127,472.467,387.581,458.348C379.242,444.571,361.4,441.866,345.317,442.679C330.862,443.41,317.072,449.73,309.862,462.279C302.677,474.785,304.048,489.928,310.872,502.635C318.132,516.155,329.975,527.95,345.317,528.301" fill="rgba(159, 161, 255, 0.35)" class="triangle-float3"></path><path d="M1479.9676550746442 345.9959894591604L1343.1047253604665 385.2408030361329 1519.2124686516167 482.85891917333817z" fill="rgba(159, 161, 255, 0.35)" class="triangle-float2"></path><path d="M62.12358187786407 162.30112542559112L-60.74642927012184 269.1103965918672 168.93285304414013 285.17113657357703z" fill="rgba(159, 161, 255, 0.35)" class="triangle-float1"></path><path d="M723.5961487148714 329.9466032578866L786.6345286733581 338.8060697955388 768.4045385005932 239.81876658898273z" fill="rgba(159, 161, 255, 0.35)" class="triangle-float3"></path><path d="M1160.2883657536777 120.74180439296201L1126.3899533600904 9.865093452941878 1015.5132424200702 43.763505846529185 1049.4116548136576 154.6402167865493z" fill="rgba(159, 161, 255, 0.35)" class="triangle-float1"></path><path d="M115.56877878792206 196.96831340722477L140.41642939419438 40.08642175575653-16.46546225727387 15.238771149484222-41.31311286354618 172.12066280095246z" fill="rgba(159, 161, 255, 0.35)" class="triangle-float3"></path><path d="M375.4524759317302 193.49791946989L449.30928438061494 177.79917021007358 388.8327562664479 74.8633321666547z" fill="rgba(159, 161, 255, 0.35)" class="triangle-float3"></path></g><defs><mask id="SvgjsMask1423"><rect width="1440" height="560" fill="#ffffff"></rect></mask><style>
                @keyframes float1 {
                    0%{transform: translate(0, 0)}
                    50%{transform: translate(-10px, 0)}
                    100%{transform: translate(0, 0)}
                }

                .triangle-float1 {
                    animation: float1 5s infinite;
                }

                @keyframes float2 {
                    0%{transform: translate(0, 0)}
                    50%{transform: translate(-5px, -5px)}
                    100%{transform: translate(0, 0)}
                }

                .triangle-float2 {
                    animation: float2 4s infinite;
                }

                @keyframes float3 {
                    0%{transform: translate(0, 0)}
                    50%{transform: translate(0, -10px)}
                    100%{transform: translate(0, 0)}
                }

                .triangle-float3 {
                    animation: float3 6s infinite;
                }
            </style></defs></svg>