<svg width="35" height="35" viewBox="0 0 35 35" fill="none" xmlns="http://www.w3.org/2000/svg">
<rect width="35" height="35" rx="7" fill="#5E60FF"/>
<path d="M11.4642 7.04351C10.3159 8.2137 10.3159 10.1073 11.4854 11.2775L14.0371 13.8306C16.4399 16.2348 16.4399 20.1497 14.0371 22.5539L9.35906 17.8731C8.15766 16.671 7.55164 15.0859 7.55164 13.5115C7.55164 11.937 8.15766 10.352 9.35906 9.14985L11.4323 7.07542C11.4429 7.06478 11.4535 7.05415 11.4642 7.04351Z" fill="#5E60FF" stroke="white" stroke-width="2" stroke-miterlimit="10"/>
<path d="M13.5058 13.2978L11.4857 11.2765C10.3162 10.1064 10.3056 8.22341 11.4645 7.04258C12.6127 5.91494 14.4414 5.93622 15.579 7.0745C16.1531 7.64895 16.4402 8.40426 16.4402 9.14893C16.4402 9.89359 16.1531 10.6489 15.579 11.2234L15.1006 11.7021" fill="#5E60FF"/>
<path d="M13.5058 13.2978L11.4857 11.2765C10.3162 10.1064 10.3056 8.22341 11.4645 7.04258C12.6127 5.91494 14.4414 5.93622 15.579 7.0745C16.1531 7.64895 16.4402 8.40426 16.4402 9.14893C16.4402 9.89359 16.1531 10.6489 15.579 11.2234L15.1006 11.7021" stroke="white" stroke-width="2" stroke-miterlimit="10"/>
<path d="M23.5332 27.9468C24.6814 26.7766 24.6814 24.883 23.5119 23.7128L20.9603 21.1597C18.5575 18.7555 18.5575 14.8407 20.9603 12.4365L25.6383 17.1172C26.8397 18.3193 27.4457 19.9044 27.4457 21.4788C27.4457 23.0533 26.8397 24.6384 25.6383 25.8405L23.5651 27.9149C23.5438 27.9362 23.5332 27.9468 23.5332 27.9468Z" fill="#5E60FF" stroke="white" stroke-width="2" stroke-miterlimit="10"/>
<path d="M21.4824 21.7022L23.5024 23.7235C24.6719 24.8936 24.6825 26.7766 23.5237 27.9574C22.3754 29.0851 20.5468 29.0638 19.4091 27.9255C18.835 27.351 18.548 26.5957 18.548 25.8511C18.548 25.1064 18.835 24.3511 19.4091 23.7766L19.8982 23.2873" fill="#5E60FF"/>
<path d="M21.4824 21.7022L23.5024 23.7235C24.6719 24.8936 24.6825 26.7766 23.5237 27.9574C22.3754 29.0851 20.5468 29.0638 19.4091 27.9255C18.835 27.351 18.548 26.5957 18.548 25.8511C18.548 25.1064 18.835 24.3511 19.4091 23.7766L19.8982 23.2873" stroke="white" stroke-width="2" stroke-miterlimit="10"/>
</svg>
